<svg xmlns="http://www.w3.org/2000/svg" viewBox="0 0 256 256" role="img" aria-label="Brand Logo">
  <defs>
    <style>
      .gold { fill: #ffffff; }
    </style>
  </defs>
  <!-- Transparent background by default -->
  <g>
    <!-- Outer crescent arcs -->
    <path class="gold" d="M52 128c0-50.7 41.3-92 92-92 10.8 0 21.2 1.8 30.8 5.2-8.7-4.2-18.5-6.6-28.8-6.6-36.9 0-66.8 29.9-66.8 66.8S109.1 168.2 146 168.2c10.3 0 20-2.3 28.8-6.6-9.6 3.4-20 5.2-30.8 5.2-50.7 0-92-41.3-92-92z" opacity=".6"/>
    <path class="gold" d="M30 128c0-62.4 50.6-113 113-113 15.5 0 30.3 3.1 43.7 8.7C170 12.8 152.4 9 133.9 9 69.2 9 16.9 61.3 16.9 126S69.2 243 133.9 243c18.5 0 36.1-3.8 52.8-11.1-13.4 5.6-28.2 8.7-43.7 8.7C80.6 241 30 190.4 30 128z" opacity=".3"/>
    <!-- Buildings -->
    <rect class="gold" x="105" y="84" width="18" height="92" rx="2"/>
    <rect class="gold" x="132" y="66" width="22" height="110" rx="2"/>
    <rect class="gold" x="160" y="96" width="14" height="80" rx="2"/>
    <!-- Windows -->
    <rect x="164" y="110" width="6" height="6" fill="#ffffff" opacity="0.85"/>
    <rect x="164" y="124" width="6" height="6" fill="#ffffff" opacity="0.85"/>
    <rect x="164" y="138" width="6" height="6" fill="#ffffff" opacity="0.85"/>
    <rect x="164" y="152" width="6" height="6" fill="#ffffff" opacity="0.85"/>
  </g>
</svg>
